<svg width="40" height="42" viewBox="0 0 40 42" fill="none" xmlns="http://www.w3.org/2000/svg">
<path d="M35.3004 22.7339C35.3775 22.0866 35.4289 21.4134 35.4289 20.7143C35.4289 20.0152 35.3775 19.342 35.2746 18.6946L39.6205 15.2768C40.0062 14.9661 40.109 14.3964 39.8776 13.9563L35.7632 6.78393C35.5061 6.31786 34.9661 6.1625 34.5032 6.31786L29.3859 8.38929C28.3059 7.56071 27.1745 6.8875 25.9144 6.36964L25.143 0.880357C25.0658 0.3625 24.6287 0 24.1144 0H15.8856C15.3713 0 14.9599 0.3625 14.8827 0.880357L14.1113 6.36964C12.8513 6.8875 11.6941 7.58661 10.6398 8.38929L5.52252 6.31786C5.05965 6.13661 4.51964 6.31786 4.26249 6.78393L0.148106 13.9563C-0.109043 14.4223 -0.00618317 14.9661 0.405255 15.2768L4.75107 18.6946C4.64821 19.342 4.57107 20.0411 4.57107 20.7143C4.57107 21.3875 4.6225 22.0866 4.72536 22.7339L0.37954 26.1518C-0.00618379 26.4625 -0.109043 27.0321 0.122391 27.4723L4.23677 34.6446C4.49392 35.1107 5.03394 35.2661 5.4968 35.1107L10.6141 33.0393C11.6941 33.8679 12.8255 34.5411 14.0856 35.0589L14.857 40.5482C14.9599 41.0661 15.3713 41.4286 15.8856 41.4286H24.1144C24.6287 41.4286 25.0658 41.0661 25.1173 40.5482L25.8887 35.0589C27.1487 34.5411 28.3059 33.842 29.3602 33.0393L34.4775 35.1107C34.9404 35.292 35.4804 35.1107 35.7375 34.6446L39.8519 27.4723C40.109 27.0063 40.0062 26.4625 39.5947 26.1518L35.3004 22.7339ZM20 28.4821C15.757 28.4821 12.2855 24.9866 12.2855 20.7143C12.2855 16.442 15.757 12.9464 20 12.9464C24.243 12.9464 27.7145 16.442 27.7145 20.7143C27.7145 24.9866 24.243 28.4821 20 28.4821Z" fill="#4C3494"/>
</svg>
