<svg width="40" height="55" viewBox="0 0 40 55" fill="none" xmlns="http://www.w3.org/2000/svg">
<path d="M20 12.4304V19.8887L30 9.94434L20 0V7.45826C8.95 7.45826 0 16.3584 0 27.3469C0 31.2501 1.15 34.8798 3.1 37.9377L6.75 34.308C5.625 32.2445 5 29.8579 5 27.3469C5 19.118 11.725 12.4304 20 12.4304ZM36.9 16.7562L33.25 20.3859C34.35 22.4742 35 24.836 35 27.3469C35 35.5759 28.275 42.2635 20 42.2635V34.8052L10 44.7495L20 54.6939V47.2356C31.05 47.2356 40 38.3354 40 27.3469C40 23.4438 38.85 19.8141 36.9 16.7562Z" fill="#4C3494"/>
</svg>
