<svg width="31" height="31" viewBox="0 0 31 31" fill="none" xmlns="http://www.w3.org/2000/svg">
<path d="M22.1555 19.4969H20.7553L20.259 19.0183C21.996 16.9977 23.0417 14.3745 23.0417 11.5209C23.0417 5.1578 17.8839 0 11.5209 0C5.1578 0 0 5.1578 0 11.5209C0 17.8839 5.1578 23.0417 11.5209 23.0417C14.3745 23.0417 16.9977 21.996 19.0183 20.259L19.4969 20.7553V22.1555L28.3591 31L31 28.3591L22.1555 19.4969ZM11.5209 19.4969C7.10749 19.4969 3.54488 15.9342 3.54488 11.5209C3.54488 7.10749 7.10749 3.54488 11.5209 3.54488C15.9342 3.54488 19.4969 7.10749 19.4969 11.5209C19.4969 15.9342 15.9342 19.4969 11.5209 19.4969Z" fill="#4C3494"/>
</svg>
